<?xml version="1.0" standalone="no"?>
<!DOCTYPE svg PUBLIC "-//W3C//DTD SVG 20010904//EN"
 "http://www.w3.org/TR/2001/REC-SVG-20010904/DTD/svg10.dtd">
<svg version="1.0" xmlns="http://www.w3.org/2000/svg"
 width="672.000000pt" height="166.000000pt" viewBox="0 0 672.000000 166.000000"
 preserveAspectRatio="xMidYMid meet">

<g transform="translate(0.000000,166.000000) scale(0.100000,-0.100000)"
fill="#000000" stroke="none">
<path d="M1107 892 l-597 -597 73 -73 72 -72 598 598 597 597 -73 73 -72 72
-598 -598z"/>
<path d="M4080 1160 l0 -90 -32 20 c-43 26 -117 26 -167 0 -123 -62 -145 -240
-42 -333 67 -60 158 -71 216 -25 25 19 25 19 25 -1 0 -19 6 -21 55 -21 l55 0
0 270 0 270 -55 0 -55 0 0 -90z m-50 -155 c38 -20 50 -43 50 -99 0 -60 -30
-95 -87 -103 -39 -5 -46 -2 -78 30 -28 28 -35 43 -35 75 0 83 78 134 150 97z"/>
<path d="M5500 1165 l0 -86 -30 16 c-16 8 -50 15 -75 15 -124 0 -207 -100
-192 -232 15 -126 142 -208 250 -160 39 17 46 18 51 6 4 -11 19 -14 58 -12
l53 3 3 268 2 267 -60 0 -60 0 0 -85z m-51 -156 c84 -29 78 -185 -8 -204 -77
-17 -131 26 -131 102 0 56 13 81 53 98 39 17 46 18 86 4z"/>
<path d="M380 1015 l-195 -195 142 -142 143 -143 70 70 70 69 -72 73 -73 73
128 128 127 127 -68 68 c-37 37 -70 67 -72 67 -3 0 -93 -88 -200 -195z"/>
<path d="M2580 910 l0 -200 54 0 54 0 4 130 c3 119 5 131 26 152 15 16 34 23
62 23 67 0 74 -16 80 -168 l5 -132 53 -3 52 -3 0 114 c0 102 2 118 23 148 29
43 65 56 105 40 42 -18 52 -53 52 -187 l0 -114 56 0 56 0 -4 143 c-3 159 -14
192 -78 234 -59 41 -164 24 -209 -33 l-18 -23 -24 25 c-35 38 -72 54 -123 54
-36 0 -52 -6 -81 -31 l-35 -31 0 31 c0 31 0 31 -55 31 l-55 0 0 -200z"/>
<path d="M3435 1091 c-48 -22 -79 -54 -100 -103 -17 -43 -20 -114 -4 -155 23
-61 99 -116 177 -129 48 -7 141 17 165 44 16 17 15 20 -12 46 -24 23 -32 26
-49 17 -12 -6 -44 -11 -72 -11 -45 0 -56 4 -83 33 l-32 32 149 3 149 3 -6 59
c-6 74 -35 122 -91 155 -53 31 -132 33 -191 6z m158 -103 l32 -33 -53 -3 c-29
-2 -74 -2 -100 0 l-47 3 32 33 c24 24 40 32 68 32 28 0 44 -8 68 -32z"/>
<path d="M4253 1098 c2 -7 42 -98 88 -201 l84 -188 49 3 49 3 87 195 87 195
-45 3 c-24 2 -50 1 -56 -1 -6 -3 -36 -61 -66 -131 -30 -69 -57 -123 -61 -118
-4 4 -30 62 -60 130 l-52 122 -55 0 c-39 0 -53 -3 -49 -12z"/>
<path d="M4859 1090 c-177 -93 -144 -332 52 -380 59 -15 148 2 185 33 l25 22
-28 27 c-27 26 -30 26 -78 14 -59 -16 -113 -6 -137 25 -10 11 -18 25 -18 30 0
5 64 10 143 11 l142 3 -1 40 c0 22 -4 52 -7 67 -10 38 -65 98 -104 114 -46 20
-131 17 -174 -6z m155 -91 c49 -38 35 -49 -64 -49 -49 0 -90 4 -90 9 0 5 14
21 31 35 38 32 86 34 123 5z"/>
<path d="M5789 1087 c-122 -65 -145 -237 -43 -326 44 -39 131 -65 187 -56 43
8 111 38 121 54 10 15 -55 63 -73 55 -9 -4 -42 -10 -73 -12 -55 -4 -60 -2 -90
30 l-33 33 148 3 147 3 0 50 c0 112 -79 189 -193 189 -37 0 -68 -7 -98 -23z
m151 -82 c17 -9 30 -17 30 -19 0 -3 3 -11 6 -20 5 -14 -6 -16 -85 -16 -50 0
-91 4 -91 8 0 13 23 38 45 50 28 16 61 15 95 -3z"/>
<path d="M6130 1107 c0 -1 40 -90 88 -197 l88 -195 49 0 49 0 87 195 88 195
-51 3 c-28 2 -54 0 -58 -5 -4 -4 -31 -63 -60 -130 -29 -68 -54 -123 -56 -123
-2 0 -11 17 -19 38 -9 20 -34 79 -57 130 l-40 92 -54 0 c-30 0 -54 -1 -54 -3z"/>
<path d="M1817 1033 l-67 -68 72 -72 73 -73 -128 -128 -127 -127 70 -70 70
-70 198 198 197 197 -140 140 c-77 77 -142 140 -145 140 -3 0 -35 -30 -73 -67z"/>
<path d="M2580 451 l0 -61 34 0 c42 0 66 22 66 59 0 35 -17 50 -64 58 l-36 6
0 -62z m68 33 c42 -29 23 -84 -30 -84 -27 0 -28 2 -28 50 0 55 15 64 58 34z"/>
<path d="M2830 450 l0 -60 38 2 c36 1 36 1 5 5 -43 6 -47 40 -5 46 l27 4 -27
2 c-23 1 -28 6 -28 25 0 20 6 25 33 29 31 4 31 4 -5 5 l-38 2 0 -60z"/>
<path d="M3045 486 c10 -50 35 -100 44 -90 13 14 45 104 38 110 -3 3 -13 -18
-22 -46 -9 -28 -18 -50 -20 -48 -2 2 -13 26 -25 53 -12 30 -18 38 -15 21z"/>
<path d="M3270 450 l0 -60 43 2 42 1 -37 4 c-30 3 -38 9 -38 24 0 15 7 19 33
20 l32 1 -30 7 c-21 4 -31 13 -33 28 -3 18 3 22 30 26 l33 4 -37 1 -38 2 0
-60z"/>
<path d="M3710 490 c-25 -25 -25 -51 -2 -80 39 -48 121 -10 107 49 -12 51 -68
68 -105 31z m78 -2 c14 -14 16 -57 3 -77 -5 -7 -21 -13 -36 -13 -31 0 -45 16
-45 53 0 30 17 49 45 49 12 0 26 -5 33 -12z"/>
<path d="M3960 450 c0 -33 4 -60 10 -60 6 0 10 11 10 24 0 17 7 26 24 30 52
13 35 66 -21 66 -21 0 -23 -4 -23 -60z m55 25 c0 -11 -8 -21 -17 -23 -14 -3
-18 3 -18 23 0 20 4 26 18 23 9 -2 17 -12 17 -23z"/>
<path d="M4351 448 c1 -35 4 -51 6 -36 3 20 11 28 31 31 l27 4 -27 2 c-23 1
-28 6 -28 25 0 20 6 25 33 29 31 4 31 4 -5 5 l-38 2 1 -62z"/>
<path d="M4575 490 c-37 -41 -13 -102 39 -102 58 0 86 62 46 102 -25 25 -62
26 -85 0z m81 -15 c32 -49 -19 -101 -65 -68 -23 16 -28 62 -9 81 20 20 56 14
74 -13z"/>
<path d="M4827 504 c-11 -11 -8 -114 3 -114 6 0 10 11 10 25 0 32 9 32 38 -2
l23 -28 -14 30 c-13 26 -13 31 2 42 12 9 14 16 5 30 -11 19 -54 29 -67 17z
m52 -13 c12 -8 12 -12 2 -25 -20 -24 -41 -19 -41 9 0 26 14 31 39 16z"/>
<path d="M5200 505 c0 -5 9 -21 20 -35 11 -14 20 -38 21 -55 l2 -30 4 30 c3
16 14 42 25 58 11 15 18 30 15 33 -2 2 -12 -8 -22 -23 l-18 -27 -23 30 c-13
16 -24 25 -24 19z"/>
<path d="M5454 502 c-57 -38 -18 -132 48 -114 23 6 48 40 48 64 0 40 -63 73
-96 50z m71 -26 c31 -48 -18 -102 -64 -69 -23 16 -28 62 -9 81 20 20 56 14 73
-12z"/>
<path d="M5691 463 c-1 -42 3 -55 20 -67 22 -15 48 -11 61 8 4 6 7 34 6 61
l-1 50 -6 -53 c-7 -53 -22 -75 -47 -65 -8 3 -16 19 -19 36 -2 18 -6 43 -8 57
-3 14 -5 2 -6 -27z"/>
<path d="M3490 445 l0 -55 38 1 c30 2 32 3 10 6 -26 4 -28 8 -28 54 0 27 -4
49 -10 49 -5 0 -10 -25 -10 -55z"/>
</g>
</svg>
